# xmcd CD database file
#
# Track frame offsets:
#	180
#	31918
#	62218
#	87901
#	117617
#	142557
#	181572
#	201843
#	226347
#
# Disc length: 3339 seconds
#
# Revision: 0
# Processed by: cddbd v1.5PL3 Copyright (c) Steve Scherf et al.
# Submitted via: CDex 1.51
#
DISCID=6e0d0909
DTITLE=Jazz Hounds - Every dog has its day
DYEAR=1997
DGENRE=Jazz
TTITLE0=Kunjane
TTITLE1=Its raining cats and hounds
TTITLE2=Soshangroovy jive
TTITLE3=Mustapharout
TTITLE4=bittersweet
TTITLE5=Don't neighbourhood
TTITLE6=Song for the sea
TTITLE7=How now brown cow
TTITLE8=Dont metal with me
EXTD=YEAR: 1997
EXTT0=
EXTT1=
EXTT2=
EXTT3=
EXTT4=
EXTT5=
EXTT6=
EXTT7=
EXTT8=
PLAYORDER=
